<svg width="89" height="60" viewBox="0 0 89 60" fill="none" xmlns="http://www.w3.org/2000/svg">
<g opacity="0.4" clip-path="url(#clip0_573_95)">
<path d="M49.4155 -3.92254e-05V29.9821H46.9234V4.03517L28.3593 29.9821H25.936L7.3718 4.03517V29.9821H4.87695V-3.92254e-05H7.54509L7.66887 0.173252L27.1462 27.4267L46.7612 -3.92254e-05H49.4155ZM56.9083 27.4735V13.9953L82.3161 14.0338C82.9919 14.0297 83.6391 13.7599 84.1178 13.2829C84.2526 13.1426 84.6101 12.7685 84.3928 2.49755C84.4064 2.16488 84.3528 1.83288 84.2351 1.52142C84.1174 1.20995 83.9381 0.925432 83.7079 0.684873C83.4664 0.453654 83.1805 0.27376 82.8676 0.156046C82.5546 0.0383308 82.221 -0.0147652 81.887 -3.92254e-05H56.9111C56.5786 -0.014004 56.2467 0.0392078 55.9352 0.156416C55.6238 0.273624 55.3392 0.452422 55.0984 0.682123C54.8687 0.922907 54.6899 1.20753 54.5727 1.51898C54.4555 1.83043 54.4023 2.16232 54.4162 2.4948V3.74085H56.9083V2.4948H81.887V11.4949L56.8918 11.4592C56.5566 11.4541 56.224 11.5181 55.9146 11.6472C55.6052 11.7763 55.3257 11.9677 55.0935 12.2094C54.8612 12.4512 54.6813 12.7382 54.5648 13.0525C54.4482 13.3669 54.3977 13.7018 54.4162 14.0365V27.4735C54.3928 27.8078 54.4411 28.1432 54.558 28.4573C54.6749 28.7713 54.8576 29.0568 55.0939 29.2944C55.3302 29.532 55.6146 29.7163 55.9281 29.8349C56.2415 29.9535 56.5766 30.0037 56.9111 29.9821H84.3846V27.4735H56.9083Z" fill="#313131"/>
<path d="M15.9318 40.0496H14.2209C13.5325 40.0524 12.8564 40.2323 12.2577 40.5719C11.6589 40.9115 11.1576 41.3994 10.8018 41.9888L0 60H4.61835L8.23546 54.0146H21.9145L25.5343 60H30.1527L19.3508 41.9888C18.9949 41.3996 18.4935 40.9118 17.8948 40.5723C17.2961 40.2327 16.6201 40.0527 15.9318 40.0496ZM10.6285 50.0262L14.2209 44.0408H15.9318L19.5076 50.0262H10.6285ZM52.1964 48.032H36.2426C35.9743 48.0419 35.7068 47.9977 35.4559 47.9019C35.2051 47.8061 34.9762 47.6607 34.7829 47.4744C34.5895 47.2881 34.4357 47.0647 34.3307 46.8177C34.2257 46.5706 34.1715 46.3048 34.1715 46.0364C34.1715 45.7679 34.2257 45.5021 34.3307 45.2551C34.4357 45.008 34.5895 44.7846 34.7829 44.5983C34.9762 44.412 35.2051 44.2666 35.4559 44.1708C35.7068 44.075 35.9743 44.0308 36.2426 44.0408H56.4654L54.0641 40.0496H36.2371C34.6497 40.0496 33.1273 40.6802 32.0048 41.8026C30.8823 42.9251 30.2517 44.4475 30.2517 46.035C30.2517 47.6224 30.8823 49.1448 32.0048 50.2673C33.1273 51.3898 34.6497 52.0204 36.2371 52.0204H52.1909C52.7161 52.0204 53.2199 52.2291 53.5913 52.6005C53.9627 52.9719 54.1714 53.4756 54.1714 54.0009C54.1714 54.5261 53.9627 55.0299 53.5913 55.4013C53.2199 55.7727 52.7161 55.9813 52.1909 55.9813H31.9433L34.3612 60.0028H52.1964C53.7612 59.9692 55.2507 59.324 56.3455 58.2055C57.4404 57.0869 58.0535 55.584 58.0535 54.0188C58.0535 52.4535 57.4404 50.9506 56.3455 49.832C55.2507 48.7135 53.7612 48.0683 52.1964 48.0347M88.9286 50.9972L87.1297 48.032H72.9748V52.0204H84.9704V54.0146C84.952 54.5399 84.7314 55.0377 84.3547 55.4042C83.978 55.7706 83.4742 55.9774 82.9487 55.9813H66.9949C66.4735 55.9806 65.9737 55.7732 65.605 55.4045C65.2364 55.0358 65.0289 54.536 65.0282 54.0146V46.0377C65.0281 45.5136 65.2345 45.0104 65.6025 44.6372C65.9706 44.264 66.4708 44.0507 66.9949 44.0435H84.7971L82.4123 40.0523H67.0087C65.4226 40.0567 63.9027 40.6887 62.7811 41.8102C61.6596 42.9318 61.0276 44.4516 61.0232 46.0377V54.0146C61.0326 55.5992 61.6662 57.1161 62.7867 58.2366C63.9072 59.357 65.4241 59.9907 67.0087 60H82.9624C84.5485 59.9957 86.0684 59.3637 87.19 58.2421C88.3115 57.1206 88.9435 55.6007 88.9479 54.0146L88.9286 50.9972Z" fill="#313131"/>
</g>
<defs>
<clipPath id="clip0_573_95">
<rect width="88.9341" height="60" fill="white"/>
</clipPath>
</defs>
</svg>
