<svg width="155" height="60" viewBox="0 0 155 60" fill="none" xmlns="http://www.w3.org/2000/svg">
<g clip-path="url(#clip0_573_61)">
<path d="M3.81389 12.6756C6.10775 10.3052 12.1042 3.29481 13.8744 1.54667C15.0338 0.391111 15.439 0 15.5886 0C15.7382 0 15.7881 0.106667 15.7694 1.18519V5.52296C15.7694 9.67111 15.894 14.7319 16 15.6978C15.636 15.6571 15.2693 15.6413 14.9029 15.6504C14.5733 15.6455 14.2438 15.6673 13.9181 15.7156C14.0864 13.9378 14.13 6.69037 14.1487 3.40148C12.4969 4.87111 5.14782 13.4341 3.10329 15.4074C2.67943 15.8341 2.47996 16 2.39893 16C2.3179 16 2.23063 15.8756 2.23063 15.2178C2.23063 11.5674 2.187 1.89037 2 0.32C2.32089 0.352258 2.64352 0.366111 2.96616 0.361481C3.35358 0.366219 3.7409 0.346422 4.12556 0.302222C3.95726 1.89037 3.89492 8.2963 3.85129 12.6756H3.81389Z" fill="#05807C"/>
<path d="M20.0892 13.4778C20.6013 13.9192 21.2037 14.2604 21.8607 14.4811C22.5177 14.7017 23.2157 14.7974 23.9133 14.7623C26.0484 14.7623 27.9924 13.827 27.9924 11.4416C27.9924 9.05624 26.0166 7.93753 23.7859 7.93753C23.3968 7.93335 23.0082 7.96508 22.6259 8.03223C22.7194 7.59179 22.7621 7.14336 22.7533 6.69451C23.0762 6.73849 23.4023 6.75828 23.7285 6.75371C25.5067 6.75371 26.9152 5.77705 26.9152 3.9658C26.9152 2.74647 26.144 1.23709 23.7986 1.23709C23.2137 1.20004 22.627 1.27906 22.0776 1.46888C21.5281 1.65871 21.0285 1.955 20.6119 2.33805C20.6156 1.74509 20.5858 1.15237 20.5226 0.562316C21.7165 0.225643 22.953 0.036576 24.2001 0C27.8394 0 28.8273 2.24334 28.8273 3.62841C28.837 4.39337 28.5857 5.14155 28.1094 5.76572C27.6331 6.38988 26.9563 6.85798 26.1759 7.10293C26.1249 7.10293 26.1249 7.16212 26.1759 7.16212C27.884 7.50543 30 8.70701 30 11.2345C30 13.9809 27.6354 15.9994 23.8241 15.9994C22.5143 16.0138 21.2144 15.7864 20 15.3305C20.114 14.7228 20.1653 14.1064 20.153 13.4897L20.0892 13.4778Z" fill="#05807C"/>
<path d="M34.6554 15.9323C34.2572 15.9323 33.7126 15.9815 33.4257 16C34.3725 14.7068 35.2036 13.3245 35.9086 11.8708C35.9416 11.8177 35.9591 11.7557 35.9591 11.6923C35.9591 11.6289 35.9416 11.5669 35.9086 11.5138C35.323 10.2154 33.0392 5.58154 31.7568 3.11385C30.691 1.04 30.2635 0.295385 30 0.0369231C30.3539 0.0767121 30.7099 0.0931546 31.0658 0.0861539C31.5108 0.0861539 32.0554 0.0369231 32.3599 0.0184616C32.6123 0.80522 32.9216 1.57053 33.2851 2.30769C34.4563 4.67077 36.5293 9.12615 36.9275 9.90769C37.9757 7.68615 39.5041 4.14769 40.3707 2.03077C40.6825 1.39014 40.926 0.715279 41.0968 0.0184616C41.378 0.0605998 41.6621 0.0770716 41.9459 0.0676923C42.268 0.0676923 42.7365 0.0184615 43 0C42.8126 0.338462 42.227 1.47692 41.5946 2.88615C40.7455 4.76308 38.368 9.93231 36.6581 13.5323C36.0315 14.8246 35.6099 15.7538 35.5338 15.9938C35.2428 15.9523 34.949 15.9359 34.6554 15.9446V15.9323Z" fill="#05807C"/>
<path d="M47.3863 3.59745C47.5118 2.42437 47.6134 1.34754 47.7209 0.348916C47.7627 0.0962528 47.7986 0.0360948 47.8583 0.0360948C47.9181 0.0360948 48.0018 0.204537 48.1272 0.385011C48.4141 0.878306 49.4179 2.88758 49.9796 3.90425L54.5269 12.9279L58.5244 4.88483C59.6239 2.99587 60.2214 1.74458 60.8608 0.4572C61.07 0.0842211 61.1775 0 61.2373 0C61.297 0 61.3627 0.0782053 61.4225 0.60158C61.5062 1.59419 61.6137 2.68906 61.7093 3.80198C62.1634 8.68079 62.7192 14.7327 63 15.9238C62.7099 15.8753 62.4153 15.8591 62.1216 15.8757C61.7003 15.8665 61.2789 15.8886 60.8608 15.9419C60.8608 14.6424 60.3888 8.0371 60.1677 4.16895C58.4228 7.8085 56.2179 12.0557 54.503 15.7193C54.3417 16.0862 54.2759 16.0862 54.1325 15.7614C52.077 11.3578 50.2664 7.76038 48.6292 4.1148C48.4021 7.79647 47.8703 14.6244 47.8703 15.9058C47.6113 15.8668 47.3493 15.8507 47.0875 15.8576C46.7238 15.8457 46.3597 15.8678 46 15.9238C46.2211 14.8289 46.9262 8.4943 47.4162 3.54932L47.3863 3.59745Z" fill="#05807C"/>
<path d="M68.2017 6.15527C68.2431 4.12171 68.1758 2.08733 68 0.0614912C68.2195 0.0614912 68.5102 0.0614912 68.795 0.0614912C69.3052 0.0614912 70.3849 0 71.5299 0C73.9504 0 74.9946 0.565719 75.8548 1.37125C76.5991 2.17123 77.0103 3.24229 76.9998 4.35357C76.9998 7.3359 74.7335 9.18063 71.8147 9.14989C71.7494 8.92237 71.607 8.34435 71.5299 8.13528C73.464 8.04919 75.22 7.09608 75.22 4.66718C75.2577 4.07044 75.1365 3.47444 74.8698 2.94419C74.603 2.41394 74.2008 1.96982 73.7072 1.66026C72.9743 1.21239 72.1303 0.998493 71.2807 1.04535C70.8628 1.03335 70.4448 1.07048 70.0349 1.15603C69.934 1.15603 69.934 1.21753 69.934 1.57417V9.93082C69.934 12.538 70.0171 15.0653 70.0942 15.9816C69.7772 15.9445 69.458 15.9301 69.1391 15.9385C68.7703 15.9328 68.4016 15.9533 68.0356 16C68.1127 15.176 68.1958 12.618 68.1958 9.85088V6.16141L68.2017 6.15527Z" fill="#05807C"/>
<path d="M83.6701 15.9323C83.2707 15.9323 82.7244 15.9815 82.4365 16C83.3857 14.7076 84.2176 13.3252 84.9214 11.8708C84.9568 11.8187 84.9758 11.7563 84.9758 11.6923C84.9758 11.6283 84.9568 11.566 84.9214 11.5138C84.3339 10.2154 82.0488 5.58154 80.7623 3.11385C79.6932 1.04 79.2643 0.295385 79 0.0369231C79.355 0.0769559 79.7121 0.0933991 80.0691 0.0861539C80.5156 0.0861539 81.0619 0.0369231 81.3674 0.0184616C81.6177 0.806377 81.928 1.57192 82.2955 2.30769C83.441 4.67077 85.5441 9.12615 85.9494 9.90769C87.0009 7.68615 88.5341 4.14769 89.4035 2.03077C89.6981 1.38783 89.9247 0.713045 90.0791 0.0184616C90.3611 0.0607854 90.6461 0.0772581 90.9309 0.0676923C91.2716 0.0676923 91.7357 0.0184615 92 0C91.812 0.338462 91.2246 1.47692 90.5843 2.88615C89.7384 4.76308 87.3534 9.93231 85.6381 13.5323C85.0036 14.8246 84.5865 15.7538 84.5043 15.9938C84.2181 15.9548 83.9292 15.9404 83.6408 15.9508L83.6701 15.9323Z" fill="#05807C"/>
<path d="M102.236 14.5208C102.299 14.5208 102.317 14.4789 102.28 14.3952C101.707 12.9366 99.0667 6.39655 98.0392 3.80206C97.9333 3.55696 97.8711 3.45533 97.8212 3.45533C97.7714 3.45533 97.6905 3.58087 97.5908 3.81999C96.4264 7.03022 94.9132 11.0594 93.7176 14.4132C93.7176 14.4968 93.7176 14.5208 93.7798 14.5208C93.948 14.5686 102 14.5865 102.242 14.5208H102.236ZM90.0498 18C90.0498 16.6191 90.0498 15.0409 90 14.3773C90.6399 14.4797 91.2879 14.5277 91.9366 14.5208C92.0612 14.5208 92.1297 14.5208 92.1919 14.3534L97.4601 0.986383C97.8711 0.119562 97.9333 0 98.0828 0C98.2322 0 98.2945 0.203255 98.5125 0.675523C100.499 5.28462 102.249 9.64264 104.297 14.3055C104.36 14.4311 104.428 14.467 104.509 14.467C105.194 14.467 106.377 14.4251 107 14.3713C106.822 15.5233 106.731 16.686 106.726 17.8505L105.885 17.988C105.795 17.3394 105.584 16.7117 105.263 16.1348C105.216 16.0621 105.154 15.9991 105.081 15.9498C105.009 15.9005 104.926 15.8658 104.839 15.8479C104.156 15.7827 103.47 15.7567 102.784 15.7702H94.5084C93.456 15.7702 92.3601 15.7702 91.9802 15.83C91.8813 15.8403 91.786 15.8713 91.701 15.9209C91.616 15.9705 91.5434 16.0374 91.4883 16.1169C91.1998 16.6755 90.9903 17.2686 90.8656 17.8804L90.0311 17.988L90.0498 18Z" fill="#05807C"/>
<path d="M109.206 6.12831C109.257 4.08935 109.188 2.04911 109 0.0184403C109.301 0.0610207 109.605 0.0774717 109.909 0.0676143C110.314 0.0758238 110.719 0.0532224 111.121 0C111.061 0.762197 110.976 2.88283 110.976 5.94391V6.36189C110.976 6.4295 110.976 6.44794 111.061 6.44794H119.976C120.036 6.44794 120.036 6.44795 120.036 6.36189V5.94391C120.036 2.91971 119.958 0.780638 119.867 0.0184403C120.172 0.0624139 120.48 0.0788696 120.788 0.0676143C121.193 0.0724921 121.598 0.0499037 122 0C121.897 0.743757 121.836 3.1287 121.836 6.14675V9.87169C121.836 12.5578 121.915 15.1149 122 15.9816C121.694 15.944 121.386 15.9296 121.079 15.9385C120.709 15.9385 120.012 15.9816 119.867 16C119.976 15.1763 120.036 12.6193 120.036 9.85325V7.88629C120.036 7.82482 120.036 7.80638 119.976 7.80638H111.042C111.042 7.80638 110.976 7.8494 110.976 7.88629V9.85325C110.976 12.5394 111.085 15.0964 111.17 15.9631C110.958 15.9631 110.624 15.9201 110.309 15.9201C109.884 15.9149 109.459 15.9355 109.036 15.9816C109.145 15.1395 109.206 12.6008 109.206 9.83481V6.13446V6.12831Z" fill="#05807C"/>
<path d="M133.951 9.27046C133.96 9.26839 133.968 9.2645 133.976 9.25904C133.983 9.25359 133.989 9.24668 133.994 9.23875C133.998 9.23081 134.001 9.22203 134.002 9.21295C134.003 9.20387 134.002 9.19468 134 9.18597L131.536 3.15051L129.266 9.18597C129.266 9.25236 129.266 9.27046 129.309 9.27046H133.951ZM128.902 10.4776C128.88 10.4743 128.857 10.4785 128.837 10.4894C128.817 10.5003 128.802 10.5174 128.793 10.5379C128.15 12.3485 127.179 15.0041 126.936 15.9698C126.662 15.9217 126.383 15.9055 126.104 15.9215C125.668 15.9215 125.164 15.9698 125 15.9879C125.528 14.8895 126.311 13.0607 127.148 11.0449L131.281 0.857035C131.536 0.253489 131.633 0 131.76 0C131.888 0 131.967 0.168993 132.258 0.857035C132.482 1.38212 134.528 6.02339 136.348 10.2482C137.124 12.2071 138.009 14.1213 139 15.9819C138.624 15.9819 138.272 15.9336 138.041 15.9336C137.589 15.9242 137.137 15.9464 136.688 16C136.348 15.0464 135.201 12.2158 134.497 10.5681C134.497 10.5258 134.497 10.5077 134.412 10.5077H128.92L128.902 10.4776Z" fill="#05807C"/>
<path d="M150.07 1.38809C150.07 1.30862 150.07 1.26583 149.987 1.24749C149.524 1.14093 149.049 1.09777 148.575 1.11912C146.221 1.11912 144.855 2.3417 144.855 4.53011C144.831 5.20062 144.993 5.86418 145.323 6.44107C145.653 7.01796 146.137 7.48365 146.715 7.78217C147.343 8.05479 148.018 8.18605 148.698 8.16728C149.135 8.1808 149.571 8.14389 149.999 8.05725C150.04 8.05725 150.105 8.05725 150.105 7.91054C150.105 5.74658 150.105 3.14249 150.105 1.38809H150.07ZM151.77 9.82387C151.77 12.1407 151.876 15.1849 151.971 15.9368C151.729 15.9368 151.306 15.8879 151.023 15.8879C150.646 15.8906 150.268 15.9131 149.893 15.9551C150.066 14.0065 150.133 12.0493 150.093 10.0928V9.40208C150.093 9.32262 150.093 9.27983 150.017 9.27983C149.628 9.27983 149.181 9.32262 148.74 9.32262C148.198 9.32262 147.563 9.24315 147.268 9.21258C147.204 9.21258 147.174 9.21258 147.109 9.29817C146.48 10.1356 144.337 13.4183 143.484 14.5308C143.162 14.9691 142.789 15.3634 142.372 15.7045C141.918 15.9499 141.402 16.0459 140.895 15.9796C140.593 15.9947 140.29 15.9575 140 15.8695C140.64 15.4157 141.196 14.8464 141.642 14.1885C142.183 13.5466 142.772 12.7214 143.319 11.9695C144.29 10.643 145.344 9.21258 145.673 8.8397C144.894 8.46997 144.236 7.87227 143.779 7.11983C143.323 6.36739 143.087 5.49289 143.102 4.60347C143.105 3.85711 143.291 3.12385 143.642 2.47262C143.993 1.82139 144.497 1.27359 145.108 0.880717C146.219 0.233808 147.486 -0.067516 148.757 0.012687C149.393 0.012687 150.523 0.0982674 150.947 0.0982674C151.298 0.107367 151.65 0.0910265 152 0.0493643C151.8 0.746234 151.782 3.10581 151.782 6.12558V9.79331L151.77 9.82387Z" fill="#05807C"/>
<path d="M44.2316 24C39.9107 24 37 27.4461 37 32.1335C37 37.4534 40.2542 41 44.8342 41C47.9317 41 51.9995 38.8661 51.9995 32.636C52.0477 27.3752 48.5585 24 44.2316 24Z" fill="#05807C"/>
<path d="M0 19V48H155V19H0ZM33.6251 45.0729L32.6108 45.2513C32.5096 44.4224 32.2627 43.6185 31.8819 42.8776C31.759 42.6934 31.5728 42.5619 31.3596 42.5087C30.5302 42.4239 29.6965 42.391 28.8632 42.4103H18.8291C17.5536 42.4103 16.2234 42.441 15.7618 42.4964C15.6393 42.5036 15.5204 42.5403 15.4147 42.6034C15.3091 42.6665 15.2199 42.7542 15.1544 42.8592C14.8122 43.5797 14.5651 44.3426 14.4195 45.1283L13.4051 45.2513C13.4051 43.4864 13.4051 41.4572 13.3565 40.6147C14.1313 40.7444 14.9158 40.8061 15.701 40.7992C15.8529 40.7992 15.9379 40.7992 16.0169 40.584L22.3945 23.4582C22.8925 22.3514 22.9654 22.1915 23.1477 22.1915C23.3299 22.1915 23.4088 22.462 23.6639 23.0647C26.0935 28.9741 28.2011 34.5638 30.7036 40.5532C30.7826 40.7131 30.8554 40.7684 30.9648 40.7684C31.7969 40.7684 33.2546 40.7131 33.9653 40.6393C33.7416 42.1064 33.6279 43.5885 33.6251 45.0729ZM44.7708 42.8531C37.968 42.8531 34.8703 37.4417 34.8703 32.7006C34.8703 27.24 38.466 22.1669 45.0866 22.1669C51.0573 22.1669 54.9628 26.4714 54.9628 32.0057C54.9628 38.1366 51.0755 42.8469 44.7708 42.8776V42.8531ZM73.5671 42.4042C73.0012 42.3945 72.4352 42.4212 71.8725 42.4841C71.4838 41.3219 70.0504 37.7061 69.1939 35.5416L65.4949 26.4406L62.0753 35.5662C61.2736 37.8598 60.0649 41.2358 59.7612 42.4841C59.4076 42.4293 59.0494 42.4108 58.6922 42.4287C58.1394 42.4287 57.5199 42.4841 57.3134 42.5087C57.9633 41.1128 58.9533 38.8191 59.992 36.2241L65.1609 23.3106C65.4949 22.5481 65.6286 22.2284 65.7682 22.2284C65.908 22.2284 66.0051 22.4374 66.3756 23.3106C66.6672 23.9686 69.2182 29.8719 71.4595 35.2279C72.6257 38.0566 74.0834 41.4879 74.7637 42.5148C74.2899 42.4533 73.8465 42.4287 73.5671 42.4287V42.4042ZM94.2184 42.4042C93.8119 42.4005 93.4057 42.4293 93.0036 42.4902C93.2102 40.1966 93.2648 30.8066 93.2952 26.5575C91.2787 28.4576 82.3622 39.5324 79.8779 42.1213C79.3616 42.6686 79.1248 42.8654 79.0154 42.8654C78.9061 42.8654 78.8089 42.7055 78.8089 41.863C78.8089 37.1404 78.7543 24.645 78.5174 22.5789C78.9046 22.6218 79.2941 22.6403 79.6836 22.6342C80.1547 22.639 80.6256 22.6102 81.0927 22.5481C80.8801 24.602 80.8012 32.8851 80.7526 38.5363C83.5466 35.4616 90.8353 26.4037 92.9733 24.1285C94.3824 22.6281 94.8501 22.1238 95.0323 22.1238C95.2146 22.1238 95.2692 22.2468 95.2388 23.6243V29.2754C95.2388 34.6315 95.3968 41.1989 95.5304 42.4349C95.0959 42.401 94.6598 42.3949 94.2245 42.4165L94.2184 42.4042ZM118.751 42.4718C118.368 42.4238 117.982 42.4053 117.597 42.4165C117.129 42.4165 116.267 42.4718 116.084 42.4964C116.212 41.4695 116.291 38.278 116.291 34.8467V32.387C116.291 32.3009 116.291 32.2824 116.212 32.2824H105.079C105.024 32.2824 105 32.3378 105 32.387V34.8467C105 38.198 105.121 41.3895 105.23 42.4718C104.875 42.4346 104.518 42.4162 104.161 42.4165C103.632 42.41 103.102 42.4367 102.576 42.4964C102.704 41.4387 102.789 38.278 102.789 34.8467V30.2163C102.851 27.6735 102.762 25.1292 102.521 22.5973C102.904 22.6453 103.29 22.6638 103.675 22.6527C104.181 22.6607 104.686 22.634 105.188 22.5727C105.103 23.5136 105.006 26.1578 105.006 29.9826V30.5114C105.006 30.5975 105.006 30.616 105.103 30.616H116.23C116.309 30.616 116.309 30.5852 116.309 30.5114V29.9826C116.309 26.2131 116.212 23.5443 116.103 22.6035C116.485 22.6528 116.871 22.6713 117.257 22.6588C117.762 22.6633 118.267 22.6366 118.769 22.5789C118.642 23.5013 118.557 26.4837 118.557 30.2224V34.8651C118.544 38.2103 118.648 41.3834 118.757 42.4841L118.751 42.4718ZM138.795 42.4226C138.229 42.4142 137.663 42.443 137.1 42.5087C136.681 41.2788 135.278 37.7061 134.361 35.56C134.361 35.5108 134.361 35.4801 134.264 35.4801H127.394C127.368 35.4761 127.341 35.482 127.318 35.4967C127.296 35.5115 127.28 35.534 127.273 35.56C126.465 37.8537 125.268 41.2296 124.952 42.4779C124.607 42.4231 124.257 42.4046 123.908 42.4226C123.449 42.4247 122.991 42.4534 122.535 42.5087C123.185 41.1128 124.169 38.7822 125.214 36.2241L130.376 23.2737C130.692 22.5112 130.82 22.1915 130.984 22.1915C131.148 22.1915 131.245 22.4006 131.591 23.2737C131.883 23.9317 134.44 29.8412 136.675 35.1972C137.847 38.0197 139.305 41.451 139.985 42.4779C139.518 42.4656 139.092 42.4349 138.795 42.4349V42.4226Z" fill="#05807C"/>
<path d="M130.88 26L128 33.8988C128 33.981 128 34 128.049 34H133.938C133.988 34 134.018 34 133.988 33.8988L130.88 26Z" fill="#05807C"/>
<path d="M23.0445 27.4412C22.9225 27.1269 22.8469 27 22.7946 27C22.7423 27 22.6493 27.1571 22.5157 27.4714C21.1732 31.521 19.3948 36.604 18 40.8228C18 40.9195 18 40.9497 18.0814 40.9497C18.279 41.0041 27.659 41.0283 27.9263 40.9497C28.0019 40.9497 28.0193 40.8953 27.9786 40.7926C27.3161 38.9552 24.2534 30.705 23.0445 27.4412Z" fill="#05807C"/>
<path d="M6.76721 52.0545C6.99946 52.0544 7.23151 52.0422 7.46229 52.0182C6.99365 52.328 6.55485 52.6747 6.15082 53.0543C5.92131 53.2603 3.86885 55.0781 3.66557 55.2841C4.34098 55.987 5.88852 57.3988 6.45246 57.8775C6.89111 58.3166 7.41633 58.6744 8 58.9318C7.83337 58.9838 7.65764 59.0064 7.48197 58.9984C6.97049 58.9984 6.63607 58.853 5.99344 58.2774C4.94426 57.3685 3.92131 56.3202 2.94426 55.3932C2.93504 55.3842 2.9299 55.3723 2.9299 55.3599C2.9299 55.3475 2.93504 55.3355 2.94426 55.3265C3.35738 55.0115 4.51803 53.9814 5.31148 53.1937C5.71629 52.831 6.09523 52.4444 6.4459 52.0364C6.54611 52.0471 6.64733 52.0471 6.74754 52.0364L6.76721 52.0545ZM2.07869 54.6842C2.10344 53.801 2.07717 52.9171 2 52.0364C2.11138 52.0425 2.22305 52.0425 2.33443 52.0364C2.49495 52.0404 2.65546 52.0282 2.81311 52C2.77377 52.3333 2.74754 53.3633 2.74754 54.6661V56.29C2.74754 57.5018 2.78689 58.7137 2.82623 58.95C2.72143 58.9434 2.61627 58.9434 2.51148 58.95C2.35098 58.9468 2.19057 58.959 2.03279 58.9863C2.03279 58.7076 2.0918 57.526 2.0918 56.3142V54.6842H2.07869Z" fill="#05807C"/>
<path d="M15.3601 55.5127C15.3904 55.1119 15.3366 54.7091 15.2023 54.3303C15.0679 53.9514 14.8559 53.6048 14.5799 53.3127C14.3038 53.0205 13.9698 52.7893 13.5993 52.6338C13.2287 52.4782 12.8297 52.4019 12.428 52.4095C10.6687 52.4095 9.64246 53.7529 9.64832 55.4071C9.64832 57.3781 10.915 58.6042 12.5804 58.6042C13.8236 58.6042 15.3366 57.7536 15.3366 55.5127M9.00326 55.5772C8.98259 55.1036 9.06042 54.6308 9.23183 54.1888C9.40325 53.7468 9.66451 53.3452 9.99909 53.0094C10.3337 52.6736 10.7343 52.4109 11.1756 52.238C11.6169 52.0651 12.0893 51.9857 12.5628 52.0048C13.0111 51.9805 13.4595 52.049 13.88 52.206C14.3005 52.3631 14.6841 52.6054 15.0067 52.9176C15.3293 53.2298 15.584 53.6054 15.7548 54.0206C15.9256 54.4359 16.0088 54.8819 15.9993 55.3309C15.9993 57.4192 14.6153 58.9972 12.4807 58.9972C12.0251 59.0159 11.5705 58.9406 11.1453 58.7758C10.7201 58.611 10.3334 58.3604 10.0093 58.0395C9.68525 57.7186 9.43074 57.3344 9.26168 56.9108C9.09262 56.4871 9.01264 56.0332 9.02672 55.5772" fill="#05807C"/>
<path d="M18.1364 52C18.5856 52.0655 19.04 52.0899 19.4938 52.0729H22.593C23.0632 52.0869 23.5339 52.0626 24 52C23.9544 52.2204 23.9233 52.4435 23.907 52.6678C23.5686 52.5448 23.2074 52.493 22.8471 52.516C22.4194 52.516 21.9669 52.4796 21.2665 52.4796V56.2801C21.2665 57.4944 21.3099 58.7086 21.3285 59C21.2294 58.9943 21.1301 58.9943 21.031 59C20.8698 59 20.6529 59 20.5723 59C20.6157 58.7329 20.6467 57.5429 20.6467 56.3287V52.4796H19.2893C18.8557 52.4682 18.4225 52.511 18 52.6071C18.0622 52.409 18.1057 52.2058 18.1302 52H18.1364Z" fill="#05807C"/>
<path d="M26.1118 52C26.566 52.0661 27.0256 52.0905 27.4845 52.0729H30.5901C31.0613 52.0867 31.5329 52.0623 32 52C31.9512 52.2199 31.9201 52.4432 31.9068 52.6678C31.5654 52.5451 31.2015 52.4935 30.8385 52.516C30.4099 52.516 29.9565 52.4796 29.2547 52.4796V56.2801C29.2547 57.4944 29.2981 58.7086 29.3168 59C29.2196 58.9942 29.1221 58.9942 29.0248 59C28.8571 59 28.646 59 28.559 59C28.6087 58.7329 28.6335 57.5429 28.6335 56.3287V52.4796H27.2981C26.8616 52.4679 26.4254 52.5108 26 52.6071C26.065 52.4097 26.1087 52.2063 26.1304 52H26.1118Z" fill="#05807C"/>
<path d="M35.0788 54.6818C35.1002 53.8029 35.0739 52.9234 35 52.0482C35.0841 52.0482 35.2732 52.0482 35.4046 52.0482H37.2014C37.4001 52.05 37.5986 52.0338 37.7951 52C37.7679 52.1995 37.7521 52.4008 37.7478 52.6027C37.554 52.5151 37.3466 52.4741 37.1384 52.4821C36.9019 52.4821 36.4343 52.446 35.6357 52.446C35.6357 52.446 35.6042 52.446 35.6042 52.4821V55.0133V55.0675H36.9597C37.1847 55.068 37.4095 55.0498 37.6322 55.0133C37.5991 55.212 37.5816 55.4137 37.5797 55.616C37.4119 55.5428 37.2338 55.506 37.0543 55.5075C36.7706 55.5075 35.7303 55.4713 35.6042 55.4713C35.6042 55.4713 35.6042 55.4713 35.6042 55.5075V56.2487C35.5604 56.9861 35.5763 57.7265 35.6515 58.4605C35.7078 58.4905 35.7683 58.5089 35.8301 58.5147C36.0088 58.5147 36.2925 58.563 36.6445 58.563C37.102 58.6092 37.5629 58.5498 38 58.3882C37.9429 58.5859 37.8956 58.7871 37.8581 58.9908C37.7288 59.0031 37.5987 59.0031 37.4694 58.9908C36.303 58.9908 35.683 58.9366 35.4361 58.9366H35.021C35.021 58.6232 35.0788 57.5565 35.0788 56.297V54.6818Z" fill="#05807C"/>
<path d="M45.9838 58.5997C45.9905 58.5991 45.9969 58.5971 46.0026 58.5938C46.0084 58.5906 46.0133 58.5862 46.017 58.5809C46.0207 58.5757 46.0231 58.5697 46.0241 58.5635C46.0251 58.5573 46.0246 58.5509 46.0226 58.5449C45.7512 57.9361 44.3296 54.5997 43.8191 53.3699C43.7674 53.2603 43.7609 53.2055 43.7415 53.2055C43.7221 53.2055 43.6704 53.2603 43.6317 53.3699C43.0565 54.9163 42.2552 56.9011 41.6478 58.5571C41.6478 58.5936 41.6478 58.5997 41.6478 58.5997C41.6478 58.5997 45.874 58.5997 45.9838 58.5997ZM40.0388 60C40.0388 59.5008 40.0388 58.8493 40.0388 58.5388C40.3535 58.5804 40.6709 58.6007 40.9887 58.5997C41.0275 58.5997 41.0339 58.5997 41.0662 58.5266L43.6058 52.3105C43.7415 52.0548 43.7738 52 43.8191 52C43.8643 52 43.8966 52.0731 43.9935 52.274C44.937 54.4353 45.7771 56.3836 46.7399 58.5205C46.7399 58.5753 46.7981 58.5814 46.8433 58.5814C47.2294 58.5871 47.6155 58.5729 48 58.5388C47.912 59.0009 47.8709 59.4697 47.8772 59.9391L47.58 59.9878C47.543 59.7115 47.4602 59.4423 47.3344 59.1903C47.3211 59.1619 47.3006 59.1371 47.2747 59.1179C47.2487 59.0988 47.2182 59.086 47.1858 59.0807C46.8647 59.0393 46.5403 59.025 46.2165 59.0381H42.0355C41.5315 59.0381 41.0533 59.0381 40.7431 59.0746C40.6462 59.0746 40.6204 59.0746 40.5622 59.1842C40.4556 59.4292 40.3776 59.6843 40.3296 59.9452L40 59.9878L40.0388 60Z" fill="#05807C"/>
<path d="M55.4711 55.3091L55.7325 55.097C56.2067 54.6667 57.0699 53.7273 57.6109 53.1758C57.9647 52.8169 58.2957 52.4364 58.6018 52.0364C58.7031 52.0423 58.8045 52.0423 58.9058 52.0364C59.1091 52.0412 59.3124 52.029 59.5137 52C59.1044 52.3154 58.7184 52.6597 58.3587 53.0303C58.1824 53.2364 56.3222 55.0485 56.1277 55.2424C56.7356 55.9515 58.1459 57.3758 58.6444 57.8667C59.0213 58.2999 59.4825 58.6525 60 58.903C59.8415 58.9645 59.6711 58.9894 59.5015 58.9758C59.252 58.9631 59.0084 58.8951 58.7886 58.7766C58.5688 58.6581 58.3783 58.4922 58.231 58.2909C57.4833 57.5939 56.3283 56.303 55.4711 55.3455V55.303V55.3091ZM55.307 56.303C55.307 57.5152 55.3435 58.7273 55.3799 58.9636C55.2706 58.9567 55.161 58.9567 55.0517 58.9636C54.9089 58.9607 54.7663 58.9729 54.6261 59C54.6261 58.7879 54.6809 58.0061 54.693 56.3636V54.703C54.7234 53.8131 54.6929 52.9222 54.6018 52.0364C54.7132 52.0421 54.8248 52.0421 54.9362 52.0364C55.0789 52.0403 55.2217 52.0281 55.3617 52C55.3252 52.3273 55.3009 53.3939 55.3009 54.6545V56.2909L55.307 56.303ZM54.535 55.3576C53.6474 56.3394 52.4681 57.5939 51.7325 58.3091C51.2097 58.8424 50.9362 58.9818 50.5167 58.9818C50.3426 58.9958 50.1673 58.9773 50 58.9273C50.5008 58.654 50.9493 58.295 51.3252 57.8667C51.8237 57.3879 53.2462 55.9697 53.848 55.303C53.6657 55.097 51.8116 53.2485 51.6049 53.0606C51.2565 52.6825 50.8716 52.3394 50.4559 52.0364C50.5714 52.0364 50.7173 52.0364 50.845 52.0364C51.02 52.0397 51.1949 52.0276 51.3678 52C51.669 52.4097 52.0002 52.7966 52.3587 53.1576L54.1824 55.0364C54.2662 55.1328 54.3599 55.2201 54.462 55.297V55.3455L54.535 55.3576Z" fill="#05807C"/>
<path d="M62.0948 54.7148C62.1235 53.8271 62.0918 52.9385 62 52.0548C62.1158 52.0607 62.2319 52.0607 62.3477 52.0548C62.494 52.0544 62.6399 52.0422 62.784 52.0183C62.784 52.353 62.7271 53.3148 62.7271 54.6539V54.8304V54.8791H67.2413C67.2413 54.8791 67.2792 54.8791 67.2792 54.8304V54.6539C67.2792 53.333 67.2413 52.353 67.216 52.0365H67.5574C67.7059 52.0387 67.8541 52.0265 68 52C67.9431 52.3226 67.9241 53.3757 67.9241 54.6783V56.3157C67.9241 57.533 67.9621 58.6287 68 58.9817H67.6586C67.5112 58.9744 67.3634 58.9744 67.216 58.9817C67.2603 58.647 67.2792 57.5209 67.2792 56.3035V55.3904V55.3539H62.765C62.765 55.3539 62.765 55.3539 62.765 55.3904V56.3339C62.765 57.5513 62.8029 58.647 62.8282 59H62.5058C62.373 59 62.177 59 62.0569 59C62.0948 58.653 62.1201 57.5391 62.1201 56.3217V54.7148H62.0948Z" fill="#05807C"/>
<path d="M77.3548 54.6756C77.3849 53.7948 77.3555 52.9129 77.2669 52.0362C77.3685 52.042 77.4703 52.042 77.5718 52.0362C77.7135 52.0423 77.8554 52.0301 77.9941 52C77.9941 52.3322 77.9414 53.3589 77.9414 54.6575V56.2761C77.9414 57.484 77.9413 58.692 78 58.9275C77.8985 58.9203 77.7966 58.9203 77.695 58.9275C77.5484 58.9275 77.3666 58.9275 77.2845 58.9275C77.3197 58.6618 77.349 57.478 77.349 56.2701V54.6695L77.3548 54.6756ZM72.6628 56.3184C72.6157 57.0272 72.6334 57.739 72.7155 58.4443C73.0255 58.5834 73.3639 58.6415 73.7009 58.6135C74.5924 58.6135 75.349 58.1363 75.349 57.0854C75.3687 56.8253 75.319 56.5647 75.2053 56.3315C75.0916 56.0984 74.9182 55.9017 74.7038 55.7627C74.2451 55.4907 73.7191 55.3626 73.1906 55.3943H72.7097C72.7097 55.3943 72.6745 55.3943 72.6745 55.4426V56.3425L72.6628 56.3184ZM72.0762 54.7118C72.0983 53.8193 72.0748 52.9262 72.0059 52.0362C72.1133 52.0427 72.221 52.0427 72.3284 52.0362C72.4642 52.0396 72.6 52.0274 72.7331 52C72.6979 52.3322 72.6686 53.6186 72.6686 54.9172C72.6686 54.9534 72.6686 54.9655 72.7038 54.9655H73.2903C73.8834 54.9301 74.4753 55.0529 75.0088 55.3218C75.3077 55.4795 75.5565 55.7219 75.7259 56.0205C75.8953 56.3191 75.9782 56.6614 75.9648 57.0069C75.9648 58.0518 75.132 59 73.6188 59C72.7977 59 72.5513 58.9275 72.2991 58.9275H72C72 58.5047 72.0528 58.0216 72.0528 56.2821V54.7118H72.0762Z" fill="#05807C"/>
<path d="M83.4192 50.0119C83.5677 50.2818 83.7917 50.5028 84.0638 50.648C84.336 50.7933 84.6446 50.8565 84.9521 50.8301C85.2782 50.843 85.6028 50.7789 85.8994 50.6429C86.196 50.5069 86.4561 50.303 86.6587 50.0478L86.6108 50.3822C86.4118 50.6588 86.1478 50.8825 85.8418 51.0335C85.5359 51.1845 85.1975 51.2582 84.8563 51.2482C84.557 51.2745 84.256 51.2235 83.9823 51.1001C83.7085 50.9766 83.4713 50.7849 83.2934 50.5435C83.3293 50.418 83.3653 50.1254 83.3832 50L83.4192 50.0119ZM82.5928 57.8832C83.497 56.8859 86.5509 53.2249 87.2096 52.5083C87.6587 52.0246 87.8084 51.8752 87.8623 51.8752C87.9162 51.8752 87.9281 51.929 87.9281 52.4068C87.9281 52.8845 87.9281 53.8102 87.9281 54.5448C87.9281 56.211 87.982 58.3132 88 58.8686C87.8922 58.8686 87.7305 58.8686 87.6168 58.8686C87.5131 58.8618 87.4091 58.8618 87.3054 58.8686C87.3593 58.0146 87.3952 54.7538 87.4012 53.0398C86.8024 53.637 83.2575 57.8772 82.4371 58.7432C82.2754 58.9403 82.1856 59 82.1497 59C82.1138 59 82.0898 58.9642 82.0898 58.7253C82.0898 57.0949 82.0898 52.7054 82 52.0246C82.1138 52.0246 82.2515 52.0246 82.3233 52.0246C82.454 52.0271 82.5846 52.0151 82.7126 51.9887C82.6527 52.7293 82.6108 55.8527 82.5928 57.8832Z" fill="#05807C"/>
<path d="M97.0758 54.6989C97.1001 53.8108 97.0748 52.922 97 52.0366C97.0568 52.0366 97.3284 52.0366 97.4105 52.0366H102.463C102.637 52.0427 102.81 52.0305 102.981 52C102.931 52.3168 102.905 53.3708 102.905 54.6806V56.3133C102.905 57.5318 102.943 58.604 103 58.9878C102.886 58.9816 102.773 58.9816 102.659 58.9878C102.469 58.9878 102.274 58.9878 102.217 58.9878C102.255 58.6527 102.28 57.5257 102.28 56.3072V53.9678C102.28 53.5352 102.28 52.658 102.28 52.5361C102.28 52.4143 102.28 52.4813 102.223 52.4813H97.7642C97.7536 52.4828 97.7439 52.4879 97.737 52.4957C97.73 52.5036 97.7262 52.5136 97.7263 52.5239C97.7263 52.7859 97.7263 53.4682 97.7263 53.8947V56.3316C97.7263 57.6597 97.7642 58.6771 97.8021 59H97.4674C97.3222 58.9924 97.1767 58.9924 97.0316 59C97.0695 58.6527 97.0884 57.5379 97.0884 56.3194V54.6989H97.0758Z" fill="#05807C"/>
<path d="M111.36 55.5127C111.39 55.1119 111.337 54.7091 111.202 54.3303C111.068 53.9514 110.856 53.6048 110.58 53.3127C110.304 53.0205 109.97 52.7893 109.599 52.6338C109.229 52.4782 108.83 52.4019 108.428 52.4095C106.669 52.4095 105.642 53.7529 105.648 55.4071C105.648 57.3781 106.915 58.6042 108.58 58.6042C109.824 58.6042 111.337 57.7536 111.337 55.5127M105.003 55.5772C104.983 55.1036 105.06 54.6308 105.232 54.1888C105.403 53.7468 105.665 53.3452 105.999 53.0094C106.334 52.6736 106.734 52.4109 107.176 52.238C107.617 52.0651 108.089 51.9857 108.563 52.0048C109.011 51.9805 109.459 52.049 109.88 52.206C110.301 52.3631 110.684 52.6054 111.007 52.9176C111.329 53.2298 111.584 53.6054 111.755 54.0206C111.926 54.4359 112.009 54.8819 111.999 55.3309C111.999 57.4192 110.615 58.9972 108.481 58.9972C108.025 59.0159 107.571 58.9406 107.145 58.7758C106.72 58.611 106.333 58.3604 106.009 58.0395C105.685 57.7186 105.431 57.3344 105.262 56.9108C105.093 56.4871 105.013 56.0332 105.027 55.5772" fill="#05807C"/>
<path d="M116.085 58.0616C115.736 57.7248 115.459 57.3168 115.273 56.8638C115.086 56.4109 114.994 55.9229 115.002 55.4311C114.987 54.9833 115.062 54.5372 115.222 54.1203C115.381 53.7033 115.622 53.3243 115.93 53.0066C116.296 52.661 116.726 52.3943 117.195 52.2225C117.663 52.0507 118.16 51.9771 118.657 52.0062C119.457 52.0048 120.25 52.1503 121 52.4358C120.935 52.6614 120.901 52.895 120.897 53.1302C120.26 52.6026 119.45 52.3457 118.634 52.4122C118.236 52.3817 117.835 52.4343 117.457 52.5668C117.079 52.6992 116.731 52.9089 116.434 53.1831C116.165 53.4689 115.956 53.8075 115.818 54.1787C115.68 54.5499 115.617 54.9459 115.632 55.3429C115.632 56.7787 116.52 58.5618 118.972 58.5618C119.657 58.6078 120.341 58.4396 120.931 58.0793C120.872 58.2708 120.832 58.468 120.811 58.6677C120.205 58.8935 119.565 59.0032 118.92 58.9914C117.895 59.0589 116.882 58.7269 116.085 58.0616Z" fill="#05807C"/>
<path d="M125.079 54.6818C125.1 53.8029 125.074 52.9233 125 52.0482C125.084 52.0482 125.272 52.0482 125.403 52.0482H127.194C127.392 52.0497 127.59 52.0336 127.785 52C127.758 52.1995 127.742 52.4008 127.738 52.6027C127.545 52.5167 127.338 52.4757 127.131 52.4821C126.895 52.4821 126.429 52.446 125.628 52.446C125.624 52.4448 125.619 52.4449 125.615 52.4463C125.611 52.4478 125.607 52.4504 125.604 52.454C125.601 52.4576 125.598 52.4621 125.597 52.467C125.596 52.4719 125.596 52.4771 125.597 52.4821V55.0133V55.0675H126.958C127.184 55.0681 127.41 55.05 127.634 55.0133C127.599 55.2118 127.58 55.4135 127.576 55.6159C127.409 55.5414 127.231 55.5045 127.052 55.5074C126.775 55.5074 125.733 55.4713 125.607 55.4713C125.607 55.4713 125.607 55.4713 125.607 55.5074V56.2487C125.564 56.986 125.579 57.7264 125.654 58.4604C125.712 58.4912 125.774 58.5095 125.838 58.5147C126.016 58.5147 126.298 58.5629 126.649 58.5629C127.105 58.6098 127.565 58.5503 128 58.3881C127.941 58.5849 127.893 58.7863 127.859 58.9908C127.728 59.0031 127.597 59.0031 127.466 58.9908C126.304 58.9908 125.686 58.9365 125.445 58.9365H125.031C125.031 58.6231 125.089 57.5564 125.089 56.2969L125.079 54.6818Z" fill="#05807C"/>
<path d="M133.816 53.1527L132.607 56.372C132.274 57.244 131.8 58.5819 131.695 59C131.598 58.9925 131.5 58.9925 131.403 59C131.263 59 131.07 59 131 59C131.228 58.5222 131.584 57.7398 131.87 56.9334L133.693 52.3404C133.798 52.1135 133.839 52 133.886 52C133.933 52 133.974 52.0717 134.079 52.3404C134.184 52.6092 135.055 54.5921 135.832 56.4556C136.252 57.4352 136.766 58.6536 137 58.9821H136.673C136.503 58.9821 136.305 58.9821 136.217 58.9821C136.077 58.5879 135.539 57.1903 135.189 56.378L133.839 53.1169L133.816 53.1527Z" fill="#05807C"/>
<path d="M145.337 55.5127C145.367 55.1144 145.314 54.7141 145.181 54.3373C145.049 53.9605 144.839 53.6153 144.566 53.3236C144.293 53.0319 143.963 52.8001 143.596 52.6427C143.229 52.4854 142.833 52.406 142.434 52.4095C140.675 52.4095 139.642 53.7529 139.648 55.4071C139.648 57.3781 140.921 58.6042 142.58 58.6042C143.824 58.6042 145.337 57.7536 145.337 55.5127ZM139.003 55.5772C138.983 55.1036 139.06 54.6308 139.232 54.1888C139.403 53.7468 139.665 53.3452 139.999 53.0094C140.334 52.6736 140.734 52.4109 141.176 52.238C141.617 52.0651 142.089 51.9857 142.563 52.0048C143.011 51.9805 143.459 52.049 143.88 52.206C144.301 52.3631 144.684 52.6054 145.007 52.9176C145.329 53.2298 145.584 53.6054 145.755 54.0206C145.926 54.4359 146.009 54.8819 145.999 55.3309C145.999 57.4192 144.615 58.9972 142.481 58.9972C142.025 59.0159 141.571 58.9406 141.145 58.7758C140.72 58.611 140.333 58.3604 140.009 58.0395C139.685 57.7186 139.431 57.3344 139.262 56.9108C139.093 56.4871 139.013 56.0332 139.027 55.5772" fill="#05807C"/>
<path d="M153.755 52.0545C153.987 52.0548 154.219 52.0426 154.45 52.0182C153.982 52.3288 153.544 52.6754 153.14 53.0543C152.91 53.2603 150.86 55.078 150.657 55.284C151.352 55.9869 152.91 57.3987 153.461 57.8773C153.899 58.3139 154.421 58.6714 155 58.9316C154.834 58.9841 154.658 59.0067 154.483 58.9983C153.978 58.9983 153.644 58.8529 153.002 58.2772C151.954 57.3684 150.945 56.3202 149.95 55.3931C149.95 55.3931 149.95 55.3446 149.95 55.3265C150.356 55.0114 151.522 53.9813 152.314 53.1936C152.719 52.8309 153.097 52.4444 153.448 52.0364C153.548 52.0471 153.649 52.0471 153.749 52.0364L153.755 52.0545ZM149.079 54.6842C149.103 53.8009 149.077 52.917 149 52.0364C149.111 52.0426 149.223 52.0426 149.334 52.0364C149.494 52.0404 149.655 52.0282 149.812 52C149.773 52.3333 149.74 53.3633 149.74 54.666V56.2899C149.74 57.5017 149.779 58.7135 149.819 58.9498C149.716 58.9431 149.613 58.9431 149.511 58.9498C149.351 58.9467 149.19 58.9589 149.033 58.9862C149.033 58.7074 149.092 57.5259 149.092 56.3141V54.6842H149.079Z" fill="#05807C"/>
</g>
<defs>
<clipPath id="clip0_573_61">
<rect width="155" height="60" fill="white"/>
</clipPath>
</defs>
</svg>
